<?xml version="1.0" encoding="UTF-8"?><svg xmlns="http://www.w3.org/2000/svg" fill="#000000" height="387.88" viewBox="0 0 1212.12 387.88" width="1212.12"><path d="M420.2,32.32h62.6c13.43,0,23.4,3.37,30.3,9.16,7.44,6.35,11.25,14.93,11.25,25.58,0,13.26-6.72,21.67-18.15,26.15v.56c14.15,4.48,23.23,16.81,23.23,32.68,0,13.44-4.73,23.17-13.25,29.89-7.62,6.16-18.31,9.53-31.93,9.53H420.2Zm57.88,52.87c9.26,0,15.6-4.67,15.6-13.44,0-8.41-6-13.27-15.42-13.27H452V85.19Zm2.53,54.17c10.52,0,17.05-6.17,17.05-15.68,0-10.65-7.63-16.07-17.41-16.07H452v31.75Zm61-107h29.57V57H541.57Zm0,37.91h29.57v95.64H541.57Zm51.53,70.43V89.29H580.77V70.23H593.1V40H622V70.23h16.86V89.29H622v44.82c0,7.47,4,9.34,10.34,9.34,1.54,0,4.81-.07,7.41-.12h0l3.55-.07v22.23c-2.55.75-12.58,1.49-20.56,1.49C605.43,167,593.1,161.2,593.1,140.66Zm73.75-80.32H633.53v-28h99.11v28H699V165.87H666.85Zm45.94,57.9c0-28.76,20-50.63,49.71-50.63,30,0,49.53,21.85,49.53,50.63s-19.61,50.62-49.53,50.62C732.75,168.86,712.79,147,712.79,118.24Zm69.3,0c0-17.37-6.91-29.15-19.77-29.15s-19.61,11.78-19.61,29.15,6.72,29,19.61,29S782.09,135.62,782.09,118.24Zm40.38-48h28.31V85.17h.54c6.52-11.39,14.77-16.11,23.18-16.43a13.22,13.22,0,0,1,5.81.75V95.64h-.73C863.94,93.47,852,102.17,852,122.91v43H822.47Zm66.68,0h28.31V85.17H918c6.53-11.39,14.77-16.11,23.19-16.43a13.2,13.2,0,0,1,5.8.75V95.64h-.73c-15.64-2.17-27.54,6.53-27.54,27.27v43H889.15Zm58.77,47.64c0-28.58,19.42-50.43,47.72-50.43,13.24,0,23.77,4.48,31.75,12,11.06,10.45,16.51,27.09,16.33,46.5H977c1.83,12.89,8.71,20.93,20.87,20.93,7.79,0,12.89-3.54,15.42-9.53h28.84a38.86,38.86,0,0,1-15.6,22.59c-7.79,5.61-17.24,8.79-29,8.79C966.78,168.67,947.92,146.82,947.92,117.87Zm65.85-10.09c-1.07-11.39-8-18.67-17.59-18.67-11.25,0-17,7.28-19,18.67Zm40.12-37.55h28.49V83.31h.54c6.9-10.28,15.79-15.87,28.66-15.87,20.33,0,32.29,14.93,32.29,36.25v62.18H1114.3v-56c0-10.09-4.9-17-14.51-17-9.8,0-16.33,8.4-16.33,20.18v52.86h-29.57ZM1162,140.66V89.29h-12.33V70.23H1162V40h28.84V70.23h16.87V89.29h-16.87v44.82c0,7.47,4,9.34,10.34,9.34,1.54,0,4.81-.07,7.41-.12h0l3.55-.07v22.23c-2.55.75-12.58,1.49-20.55,1.49C1174.31,167,1162,161.2,1162,140.66Zm-377.76,164c0,22.11-18.18,34.48-43.87,34.48-33.53,0-49.54-18.47-50.88-42.23h14.68c2,20,14.35,30.36,36.87,30.36,16.51,0,28.36-7.43,28.36-22.11,0-16.17-14.35-20-35.7-24.58-21-4.62-39-10.56-39-32.84,0-19.46,16.35-31.18,40.54-31.18,29.86,0,42.2,15,45.21,36.79H766.21c-2.17-16.83-13.18-25.24-30.7-25.24-16.18,0-26.85,6.76-26.85,19,0,13.37,13.34,17.33,31.19,20.79C763,272.54,784.22,278.15,784.22,304.71Zm-364,32.17h15V281.29H490.1V268.75H435.22V232h65.89v-13H420.2Zm94.44,0h13.51V251.59H514.64Zm0-101.46h13.51v-16.5H514.64Zm45.94,101.46H547.07v-118h13.51Zm55.76,2.31c19.52,0,33-10.39,37-28.7H640.2C637.19,322,628.86,328,616.34,328c-17.35,0-26.85-13.2-27.85-30.53h66.72c0-28.21-13.84-48-39.7-48-24.52,0-40.87,20.13-40.87,44.88S590,339.19,616.34,339.19ZM615.51,260c15.51,0,24.35,10.4,25.19,27.39H588.82C590.82,271.88,599.49,260,615.51,260Zm194.9,105.1c10.51,0,17.18-3.63,24.19-21.29l36.87-92.22H857.12l-19.69,53.12c-2.67,7.1-5.67,16.67-5.67,16.67h-.33s-3.17-9.57-5.84-16.67l-20.35-53.12H790.56l33.7,82.82-3.34,8.41c-3.34,8.25-7.17,10.4-12.85,10.4-4.5,0-7.33-.83-9.17-1.82h-.67v11.88C801.9,364.77,805.24,365.1,810.41,365.1Zm136.52-51.64c0,17.16-14.18,25.9-34,25.9-23.69,0-36.87-11.05-38.2-30.19h13.84c1.84,14.85,11.85,19,24.69,19,14.18,0,20-6.1,20-14,0-9.57-6.67-12.05-22.52-15.35-17-3.46-32.2-6.93-32.2-25.57,0-14.19,11-23.43,31-23.43,21.35,0,31.86,10.07,33.87,26.73H929.58c-1.33-11.22-7.51-16.17-20.35-16.17-12.35,0-17.35,5.45-17.35,12.21,0,9.24,8.34,11,23.19,14C932.42,290,946.93,293.82,946.93,313.46Zm5.8-51h12.51v58.4c0,12,8,16.5,19,16.5a53.2,53.2,0,0,0,10.84-1.16V324.68h-.5a26.07,26.07,0,0,1-7.17,1.15c-5.51,0-8.68-2-8.68-7.92V262.48h16.68V251.59H978.75V224.7H965.24v26.89H952.73Zm129.74,48c-4,18.31-17.51,28.7-37,28.7-26.36,0-41.7-20.12-41.7-44.87s16.34-44.88,40.87-44.88c25.85,0,39.7,19.8,39.7,48h-66.73c1,17.33,10.51,30.53,27.86,30.53,12.51,0,20.85-5.94,23.85-17.49Zm-12.68-23.1c-.83-17-9.67-27.39-25.18-27.39-16,0-24.69,11.88-26.7,27.39Zm27.73,49.49H1111V283.76c0-13.36,11.68-22.93,22.19-22.93,8.84,0,14.84,6.27,14.84,16.83v59.22h13.52V283.76c0-13.36,10-22.93,21.18-22.93,8.68,0,15.85,6.27,15.85,16.83v59.22h13.51V277c0-17.66-10.84-27.39-26.19-27.39a30.22,30.22,0,0,0-26.35,15.18h-.34c-3.67-9.9-12-15.18-22.52-15.18a30.29,30.29,0,0,0-25.35,14.19H1111V251.59h-13.51Z" fill="#ffffff" fill-rule="evenodd"/><path d="M186,292.18V203.39L262.71,159l44-25.49v57.57a1.63,1.63,0,0,0,2.45,1.41L313,190.3l22.34-12.93a8.18,8.18,0,0,0,4.08-7.09V105.16A16.38,16.38,0,0,0,331.23,91l-8.17-4.73L275,58.44a8.17,8.17,0,0,0-8.17,0L240.74,73.57a1.63,1.63,0,0,0,0,2.83l49.67,28.76-44,25.48L169.7,175,93,130.64,50.59,106.08l-1.6-.92,49.74-28.8a1.63,1.63,0,0,0,0-2.83L72.64,58.39a8.14,8.14,0,0,0-8.17,0L16.33,86.25,8.16,91A16.38,16.38,0,0,0,0,105.16v65.05a8.2,8.2,0,0,0,4.08,7.09l22.46,13,3.67,2.12A1.63,1.63,0,0,0,32.66,191v-57.5l1.6.93L76.68,159l76.69,44.39V343.15l-49.74-28.8a1.63,1.63,0,0,0-2.45,1.42V346a8.17,8.17,0,0,0,4.08,7.09L153.37,381l8.16,4.73a16.32,16.32,0,0,0,16.33,0L186,381l48.1-27.85a8.18,8.18,0,0,0,4.09-7.09V315.77a1.64,1.64,0,0,0-2.45-1.42L186,343.15Zm88.93-.51a8.18,8.18,0,0,0-4.09,7.09V329a1.63,1.63,0,0,0,2.45,1.41l57.91-33.52a16.38,16.38,0,0,0,8.16-14.18V215.65a1.63,1.63,0,0,0-2.45-1.41l-7.64,4.42-18.48,10.7a8.17,8.17,0,0,0-4.08,7.09v36.82ZM68.52,329a1.63,1.63,0,0,1-2.45,1.41L8.16,296.9A16.38,16.38,0,0,1,0,282.72V215.58a1.63,1.63,0,0,1,2.45-1.41l7.76,4.49,18.37,10.63a8.19,8.19,0,0,1,4.08,7.09v36.89l31.78,18.4a8.19,8.19,0,0,1,4.08,7.09V329ZM103.66,35.7a1.63,1.63,0,0,0,0,2.83l17.22,10,8.91,5.16a8.15,8.15,0,0,0,8.16,0L169.7,35.28l31.85,18.44a8.15,8.15,0,0,0,8.16,0l9-5.22,17.12-9.91a1.63,1.63,0,0,0,0-2.83l-58-33.57a16.32,16.32,0,0,0-16.33,0Z" fill="#3e7eff" fill-rule="evenodd"/></svg>